# xmcd
#
# Track frame offsets: 
#        150
#        15422
#        30990
#        47727
#        61982
#        79352
#        94812
#        114405
#        127367
#        144955
#        160080
#        178995
#
# Disc length: 2645 seconds
#
# Revision: 0
# Processed by: cddbd v1.5PL3 Copyright (c) Steve Scherf et al.
# Submitted via: ExactAudioCopy v0.95a5
#
DISCID=9c0a530c
DTITLE=The Fabulous Thunderbirds - The Fabulous Thunderbirds: All Time
DTITLE=Favorites [CD1]
DYEAR=2002
DGENRE=Blues/Rock
TTITLE0=Tuff Enuff
TTITLE1=Look At That, Look At That
TTITLE2=Two Time My Lovin'
TTITLE3=True Love
TTITLE4=Why Get Up
TTITLE5=Hot Number
TTITLE6=Wasted Tears
TTITLE7=It Comes To Me Naturally
TTITLE8=How Do You Spell Love
TTITLE9=Don't Bother Tryin' To Steal Her
TTITLE10=It Takes A Big Man To Cry
TTITLE11=Rock This Place
EXTD=
EXTT0=
EXTT1=
EXTT2=
EXTT3=
EXTT4=
EXTT5=
EXTT6=
EXTT7=
EXTT8=
EXTT9=
EXTT10=
EXTT11=
PLAYORDER=
